<svg width="98" height="35" viewBox="0 0 98 35" fill="none" xmlns="http://www.w3.org/2000/svg">
<g clip-path="url(#clip0_834_4576)">
<path d="M27.2644 23.2337C27.2302 23.9158 27.2112 24.3971 27.2112 24.6623V28.073H28.431V21.8846H27.0744L25.0566 26.4586L23.1225 21.8846H21.7089V28.0844H22.7045V24.6737C22.7045 24.2531 22.7045 23.7756 22.6589 23.245C22.8755 23.8893 23.0389 24.3327 23.1377 24.5638L24.6576 28.0957H25.22L26.7704 24.5638C26.9591 24.1297 27.124 23.6856 27.2644 23.2337ZM29.9243 28.0844H31.0947V23.6581H29.9319L29.9243 28.0844ZM30.5171 21.642C30.4255 21.6375 30.3339 21.6519 30.2482 21.6846C30.1625 21.7172 30.0846 21.7672 30.0193 21.8315C29.9565 21.8984 29.9077 21.9771 29.8757 22.0629C29.8438 22.1488 29.8293 22.2402 29.8331 22.3317C29.8323 22.4175 29.8499 22.5024 29.8846 22.5808C29.9193 22.6592 29.9704 22.7293 30.0345 22.7865C30.097 22.8481 30.1712 22.8967 30.2528 22.9292C30.3344 22.9617 30.4217 22.9777 30.5095 22.976C30.5974 22.977 30.6845 22.9601 30.7656 22.9262C30.8466 22.8923 30.9199 22.8422 30.9807 22.7789C31.1029 22.6513 31.1711 22.4817 31.1711 22.3052C31.1711 22.1288 31.1029 21.9591 30.9807 21.8315C30.9226 21.7685 30.8522 21.7182 30.7737 21.6836C30.6952 21.6491 30.6105 21.631 30.5247 21.6307L30.5171 21.642ZM35.4342 24.7306C35.5479 24.9931 35.5974 25.2789 35.5786 25.5643V28.0957H36.749V25.5681C36.7697 25.1681 36.7248 24.7674 36.616 24.3819C36.503 24.1138 36.3062 23.8893 36.0549 23.7418C35.8036 23.5943 35.5113 23.5317 35.2214 23.5634C34.9325 23.5629 34.647 23.625 34.3846 23.7454C34.1221 23.8658 33.8891 24.0416 33.7014 24.2606V23.6581H32.5235V28.0844H33.7014V25.6931C33.6915 25.4452 33.7197 25.1973 33.785 24.9579C33.8476 24.7643 33.975 24.598 34.1458 24.4869C34.3167 24.3758 34.5207 24.3267 34.7236 24.3478C34.8662 24.336 35.0093 24.3646 35.1364 24.4303C35.2634 24.496 35.3693 24.5961 35.4418 24.7192L35.4342 24.7306ZM39.2341 21.8315C39.1737 21.7692 39.101 21.7201 39.0205 21.6875C38.94 21.6549 38.8536 21.6394 38.7667 21.642C38.6745 21.6372 38.5823 21.6515 38.4959 21.6841C38.4095 21.7167 38.331 21.7669 38.2651 21.8315C38.203 21.8987 38.1549 21.9775 38.1236 22.0634C38.0923 22.1492 38.0784 22.2405 38.0827 22.3317C38.0812 22.4172 38.098 22.502 38.1321 22.5805C38.1662 22.6589 38.2167 22.7292 38.2803 22.7865C38.3428 22.8481 38.417 22.8967 38.4986 22.9292C38.5802 22.9617 38.6675 22.9777 38.7553 22.976C38.8433 22.9775 38.9306 22.9608 39.0117 22.9268C39.0928 22.8929 39.1659 22.8425 39.2265 22.7789C39.2888 22.7168 39.3381 22.6429 39.3713 22.5616C39.4046 22.4802 39.4213 22.3931 39.4203 22.3052C39.4282 22.2178 39.4182 22.1297 39.3907 22.0462C39.3633 21.9628 39.319 21.8859 39.2607 21.8201L39.2341 21.8315ZM38.1701 28.0957H39.3405V23.6581H38.1701V28.0957ZM40.6591 24.7685C40.6618 25.0494 40.7687 25.3194 40.9593 25.5264C41.1597 25.722 41.3771 25.8996 41.609 26.0569C41.8345 26.2118 42.0411 26.3924 42.2246 26.595C42.3191 26.6986 42.3707 26.834 42.369 26.974C42.3692 27.046 42.3537 27.1172 42.3235 27.1827C42.2933 27.2481 42.2492 27.3062 42.1942 27.353C42.0656 27.4564 41.9033 27.509 41.7382 27.5008C41.3794 27.4681 41.0433 27.3113 40.7883 27.0574L40.4083 27.6751C40.8263 28.0097 41.3466 28.1915 41.8826 28.1905C42.3148 28.2068 42.7393 28.0728 43.0834 27.8115C43.2322 27.701 43.3526 27.5567 43.4345 27.3907C43.5164 27.2246 43.5576 27.0416 43.5546 26.8565C43.5609 26.6049 43.4804 26.3588 43.3266 26.1592C43.0569 25.8612 42.7534 25.5955 42.4222 25.3672C42.0156 25.064 41.8142 24.8291 41.8142 24.651C41.813 24.5909 41.8262 24.5313 41.8526 24.4773C41.8791 24.4233 41.918 24.3763 41.9662 24.3402C42.0751 24.257 42.209 24.2129 42.3462 24.2152C42.6194 24.2146 42.8856 24.3009 43.1062 24.4615L43.452 23.9044C43.0686 23.6728 42.6272 23.5546 42.179 23.5634C41.786 23.5457 41.3991 23.665 41.0847 23.9006C40.9508 24.0022 40.8426 24.1336 40.7687 24.2842C40.6948 24.4349 40.6573 24.6007 40.6591 24.7685ZM47.1189 27.353C46.9477 27.4468 46.7557 27.4964 46.5603 27.497C46.4626 27.5052 46.3645 27.4848 46.2781 27.4384C46.1918 27.392 46.1208 27.3215 46.0739 27.2355C45.964 26.9402 45.9174 26.6252 45.9371 26.3108V24.2569H47.0999V23.6581H45.9371V22.3317L44.7668 22.5894V23.6581H44.1436V24.2569H44.7668V26.5306C44.7345 26.9226 44.8108 27.3158 44.9872 27.6675C45.1176 27.843 45.2907 27.9824 45.4902 28.0726C45.6896 28.1627 45.9089 28.2007 46.1271 28.1829C46.5434 28.177 46.9534 28.08 47.3279 27.8987L47.1189 27.353ZM51.523 27.0991C51.1823 27.3178 50.7881 27.4397 50.383 27.4515C50.2021 27.4604 50.0213 27.4313 49.8524 27.366C49.6835 27.3007 49.5303 27.2007 49.4027 27.0725C49.1408 26.7825 49.0043 26.4012 49.0227 26.0114H51.6826C51.6826 26.0114 51.7206 25.9698 51.7966 25.9357C51.8399 25.919 51.8799 25.8946 51.9144 25.8636C51.9224 25.414 51.837 24.9676 51.6636 24.5524C51.526 24.2305 51.2888 23.9609 50.9866 23.7829C50.6845 23.605 50.3332 23.5281 49.984 23.5634C49.6944 23.5529 49.4056 23.6004 49.1347 23.7033C48.8638 23.8061 48.6164 23.9622 48.4071 24.1621C48.1885 24.3761 48.0171 24.6333 47.9039 24.9171C47.7907 25.201 47.7382 25.5053 47.7497 25.8106C47.7383 26.1435 47.7977 26.475 47.9241 26.7833C48.0506 27.0917 48.2411 27.3697 48.4831 27.5993C48.9225 28.0042 49.5039 28.2206 50.1018 28.2018C50.712 28.1916 51.3086 28.0203 51.8308 27.7054L51.523 27.0991ZM50.003 24.1962C50.5274 24.1962 50.8162 24.5297 50.8618 25.1929C50.8618 25.2838 50.8618 25.3558 50.8618 25.4089H49.0113C49.0189 24.5828 49.3457 24.1811 49.9688 24.1811L50.003 24.1962ZM49.4673 23.0593L51.7472 22.2749L51.2152 21.5776L49.1747 22.8585L49.4673 23.0593ZM55.0341 23.5634C54.7339 23.5634 54.4641 23.7604 54.2285 24.1621L54.0575 24.4463V23.6884H52.8872V28.0844H54.0575V26.2161C54.0421 25.861 54.0819 25.5056 54.1754 25.1626C54.2145 25.0097 54.3039 24.8744 54.4292 24.7782C54.5546 24.682 54.7087 24.6305 54.8669 24.632C55.0645 24.6578 55.2554 24.7208 55.4293 24.8177L55.8587 23.9613C55.6424 23.7318 55.3488 23.5901 55.0341 23.5634ZM56.5541 28.1109H57.7245V23.6581H56.5541V28.1109ZM57.1393 22.9911C57.2267 22.9926 57.3134 22.9758 57.3939 22.9419C57.4743 22.9079 57.5468 22.8576 57.6067 22.7941C57.7297 22.6669 57.7985 22.4971 57.7985 22.3204C57.7985 22.1437 57.7297 21.9738 57.6067 21.8467C57.5459 21.7839 57.4725 21.7345 57.3913 21.7019C57.3101 21.6692 57.223 21.654 57.1355 21.6572C57.0439 21.6526 56.9523 21.6671 56.8666 21.6997C56.7809 21.7323 56.7029 21.7824 56.6377 21.8467C56.5749 21.9135 56.5261 21.9922 56.4941 22.0781C56.4622 22.164 56.4477 22.2554 56.4515 22.3469C56.4507 22.4326 56.4682 22.5175 56.503 22.596C56.5377 22.6744 56.5888 22.7445 56.6529 22.8017C56.7824 22.9156 56.9516 22.9741 57.1241 22.9646L57.1393 22.9911ZM62.8391 27.5387C63.0508 27.3104 63.2146 27.0424 63.3209 26.7502C63.4273 26.458 63.4741 26.1476 63.4585 25.8371C63.4659 25.535 63.4118 25.2344 63.2995 24.9537C63.1872 24.673 63.0189 24.4179 62.8049 24.2038C62.5916 23.9926 62.3374 23.8269 62.0578 23.7168C61.7782 23.6067 61.4791 23.5545 61.1786 23.5634C60.8687 23.5517 60.5595 23.6024 60.2697 23.7124C59.9798 23.8225 59.7151 23.9896 59.4914 24.2038C59.2743 24.4161 59.1032 24.6706 58.9888 24.9516C58.8744 25.2325 58.8192 25.534 58.8264 25.8371C58.8147 26.1489 58.8666 26.4598 58.9789 26.751C59.0913 27.0422 59.2618 27.3076 59.48 27.5311C59.6989 27.7487 59.9602 27.9191 60.2478 28.0319C60.5354 28.1447 60.8431 28.1974 61.152 28.1867C61.4595 28.1973 61.7658 28.1443 62.0516 28.0308C62.3375 27.9173 62.5966 27.7458 62.8125 27.5273L62.8391 27.5387ZM60.3616 27.1028C60.1334 26.721 60.0212 26.2813 60.0386 25.8371C60.0178 25.4188 60.1209 25.0037 60.335 24.6434C60.4155 24.5059 60.531 24.3922 60.6698 24.3136C60.8086 24.2351 60.9658 24.1946 61.1254 24.1962C61.2874 24.1909 61.448 24.2285 61.5908 24.305C61.7336 24.3815 61.8536 24.4943 61.9386 24.632C62.1583 24.9956 62.2617 25.4173 62.235 25.8409C62.2598 26.2767 62.1596 26.7105 61.9462 27.0915C61.8652 27.2322 61.7476 27.3484 61.6058 27.4278C61.4639 27.5072 61.3032 27.5468 61.1406 27.5424C60.9783 27.5448 60.8184 27.5044 60.6769 27.4252C60.5354 27.346 60.4174 27.2308 60.335 27.0915L60.3616 27.1028ZM70.3934 22.2143C70.1289 22.0582 69.833 21.9624 69.527 21.9338C69.2163 21.9041 68.9043 21.8914 68.5922 21.8959H66.9506V28.0844H68.1856V22.7183H68.5314C68.8217 22.7027 69.1125 22.7386 69.3902 22.8244C69.5633 22.9058 69.7068 23.039 69.8007 23.2053C69.8947 23.3716 69.9345 23.563 69.9146 23.7528C69.9146 24.5108 69.4776 24.9125 68.6036 24.9769V25.7348C69.2722 25.7617 69.9293 25.5554 70.4618 25.1512C70.688 24.9693 70.8693 24.738 70.9918 24.4752C71.1144 24.2124 71.1748 23.9251 71.1685 23.6354C71.18 23.3461 71.1112 23.0594 70.9698 22.8066C70.8283 22.5539 70.6196 22.345 70.3668 22.2029L70.3934 22.2143ZM75.1281 28.0957H76.2984V23.6581H75.1281V26.038C75.1428 26.3119 75.1041 26.586 75.0141 26.8452C74.9398 27.0219 74.8109 27.1704 74.6463 27.2692C74.4816 27.368 74.2897 27.412 74.0983 27.3946C73.9543 27.4065 73.8098 27.3771 73.682 27.31C73.5541 27.2429 73.4481 27.1408 73.3763 27.0157C73.2645 26.754 73.2163 26.4696 73.2357 26.1858V23.6581H72.0463V26.1706C72.033 26.5703 72.0843 26.9695 72.1983 27.353C72.4187 27.9025 72.8861 28.1753 73.6005 28.1753C73.8895 28.1765 74.1753 28.1147 74.4378 27.9943C74.7003 27.8739 74.9333 27.6977 75.1205 27.478L75.1281 28.0957ZM75.565 21.5814L73.5207 22.8623L73.8133 23.0631L76.0932 22.2787L75.565 21.5814ZM80.1781 28.1905C80.4671 28.196 80.7536 28.137 81.0166 28.0176C81.2796 27.8983 81.5125 27.7217 81.6981 27.5008C82.1049 27.0182 82.3187 26.4028 82.2985 25.7727C82.3257 25.1888 82.1332 24.6157 81.7589 24.1659C81.5813 23.9641 81.3601 23.805 81.112 23.7006C80.8639 23.5963 80.5952 23.5493 80.3263 23.5634C80.0303 23.5572 79.7373 23.623 79.4724 23.755C79.2076 23.8871 78.979 24.0814 78.8064 24.3213V21.5852H77.6664V28.0844H78.8064V27.4932C78.9831 27.7108 79.1981 27.8945 79.441 28.0351C79.6703 28.146 79.9234 28.1993 80.1781 28.1905ZM79.1256 27.0536C78.9082 26.7071 78.8034 26.3021 78.8254 25.894C78.8045 25.4694 78.9117 25.0483 79.1332 24.6851C79.2218 24.5462 79.3442 24.432 79.4891 24.3532C79.634 24.2743 79.7965 24.2334 79.9615 24.2341C80.1186 24.2297 80.274 24.2662 80.4126 24.34C80.5512 24.4137 80.6682 24.5222 80.7519 24.6548C80.9606 24.9963 81.0624 25.3921 81.0445 25.7916C81.0751 26.269 80.941 26.7423 80.6645 27.1332C80.5836 27.2424 80.4775 27.3304 80.355 27.3898C80.2326 27.4492 80.0976 27.4782 79.9615 27.4742C79.7973 27.485 79.633 27.4533 79.4845 27.3823C79.3361 27.3113 79.2085 27.2033 79.1142 27.0687L79.1256 27.0536ZM84.5138 21.57H83.3321V28.0844H84.5024L84.5138 21.57ZM86.5468 21.6155C86.4557 21.611 86.3648 21.6255 86.2797 21.6581C86.1946 21.6908 86.1173 21.7408 86.0528 21.805C85.9888 21.8712 85.9389 21.9496 85.9063 22.0356C85.8736 22.1216 85.8588 22.2133 85.8628 22.3052C85.862 22.3909 85.8795 22.4758 85.9143 22.5543C85.949 22.6327 86.0001 22.7028 86.0642 22.76C86.1264 22.822 86.2006 22.8707 86.2822 22.9033C86.3639 22.9359 86.4513 22.9516 86.5392 22.9494C86.6266 22.9509 86.7133 22.9341 86.7938 22.9002C86.8743 22.8662 86.9467 22.8159 87.0066 22.7524C87.1296 22.6252 87.1984 22.4554 87.1984 22.2787C87.1984 22.102 87.1296 21.9321 87.0066 21.805C86.9445 21.7449 86.8705 21.6984 86.7894 21.6684C86.7083 21.6383 86.6218 21.6255 86.5354 21.6307L86.5468 21.6155ZM85.9502 28.0578H87.1244V23.6581H85.9502V28.0578ZM90.8559 24.3213C91.1501 24.3255 91.4397 24.3954 91.7033 24.5259L92.0491 23.9044C91.6435 23.6555 91.1763 23.5243 90.7001 23.5255C90.372 23.5164 90.0453 23.5727 89.7393 23.6911C89.4333 23.8095 89.154 23.9877 88.9179 24.2152C88.4757 24.6562 88.2247 25.2527 88.219 25.8764C88.2134 26.5001 88.4534 27.1011 88.8875 27.55C89.1103 27.7623 89.3731 27.9283 89.6609 28.0382C89.9486 28.1482 90.2553 28.1999 90.5633 28.1905C91.0999 28.1941 91.6266 28.047 92.0833 27.766L91.7679 27.137C91.4853 27.3046 91.1654 27.3996 90.8369 27.4136C90.6519 27.4153 90.4687 27.3768 90.3001 27.3009C90.1315 27.225 89.9814 27.1135 89.8603 26.974C89.598 26.6544 89.4628 26.2497 89.4803 25.8371C89.4616 25.4358 89.5975 25.0426 89.8603 24.7381C89.9864 24.6014 90.1407 24.4933 90.3125 24.4214C90.4843 24.3494 90.6696 24.3153 90.8559 24.3213ZM94.9712 28.1829C95.2783 28.1928 95.5842 28.1389 95.8694 28.0248C96.1546 27.9106 96.4129 27.7386 96.6279 27.5197C96.8434 27.2967 97.0119 27.0329 97.1235 26.744C97.2351 26.455 97.2875 26.1466 97.2777 25.8371C97.2839 25.5368 97.2292 25.2384 97.1168 24.9597C97.0045 24.6811 96.8367 24.4279 96.6238 24.2155C96.4108 24.0032 96.157 23.8359 95.8776 23.7238C95.5982 23.6117 95.2989 23.5572 94.9978 23.5634C94.6883 23.5505 94.3794 23.6006 94.09 23.7107C93.8006 23.8208 93.5367 23.9886 93.3144 24.2038C93.0959 24.4152 92.9236 24.6695 92.8085 24.9506C92.6934 25.2317 92.6379 25.5336 92.6456 25.8371C92.6334 26.1486 92.6847 26.4594 92.7964 26.7505C92.9081 27.0417 93.0778 27.3072 93.2954 27.5311C93.5152 27.7487 93.7771 27.9195 94.0652 28.0328C94.3533 28.1462 94.6616 28.1998 94.9712 28.1905V28.1829ZM94.158 24.6396C94.2391 24.5019 94.3553 24.3879 94.4947 24.3094C94.6342 24.2309 94.792 24.1905 94.9522 24.1924C95.1132 24.1896 95.2721 24.2287 95.4134 24.3058C95.5546 24.3829 95.6733 24.4953 95.7578 24.632C95.9757 24.9952 96.0814 25.4144 96.0618 25.8371C96.0866 26.2729 95.9864 26.7067 95.773 27.0877C95.6927 27.2281 95.5757 27.3442 95.4345 27.4236C95.2933 27.503 95.1332 27.5428 94.9712 27.5387C94.807 27.5435 94.6445 27.5042 94.5007 27.4248C94.357 27.3455 94.2373 27.229 94.1542 27.0877C93.9369 26.7079 93.834 26.2737 93.8578 25.8371C93.8389 25.4197 93.9433 25.006 94.158 24.6472V24.6396ZM24.1789 31.7716C24.0678 31.6237 23.9231 31.5042 23.7565 31.4232C23.59 31.3421 23.4065 31.3018 23.2213 31.3055C23.0267 31.3016 22.8337 31.3403 22.6557 31.4188C22.4778 31.4974 22.3193 31.614 22.1915 31.7603C21.9171 32.0743 21.7731 32.4809 21.7887 32.8972C21.7737 33.2934 21.8958 33.6828 22.1345 33.9999C22.2521 34.1571 22.4062 34.2834 22.5836 34.3679C22.761 34.4524 22.9564 34.4926 23.1529 34.485C23.3521 34.4793 23.5476 34.4294 23.725 34.339C23.9025 34.2485 24.0575 34.1197 24.1789 33.962V34.413H24.9578V29.9602H24.1789V31.7716ZM23.9623 33.6968C23.9041 33.7935 23.8216 33.8733 23.7229 33.9285C23.6243 33.9837 23.513 34.0122 23.3999 34.0113C23.2891 34.0107 23.1805 33.9814 23.0845 33.9262C22.9886 33.8711 22.9087 33.792 22.8527 33.6968C22.7057 33.4414 22.6346 33.1496 22.6475 32.8555C22.6307 32.5794 22.7012 32.3051 22.8489 32.071C22.9077 31.9814 22.9885 31.9083 23.0836 31.8586C23.1787 31.8088 23.2849 31.7841 23.3923 31.7868C23.5042 31.7836 23.6152 31.8087 23.7148 31.8597C23.8145 31.9107 23.8996 31.986 23.9623 32.0786C24.1172 32.3086 24.1932 32.5825 24.1789 32.8593C24.192 33.1537 24.1166 33.4454 23.9623 33.6968ZM27.2758 31.3055C27.0656 31.2993 26.8564 31.3354 26.6606 31.4115C26.4647 31.4877 26.2862 31.6025 26.1358 31.7489C25.9854 31.8967 25.8675 32.0741 25.7896 32.2698C25.7118 32.4656 25.6757 32.6754 25.6836 32.8858C25.6754 33.099 25.7105 33.3117 25.7869 33.511C25.8634 33.7103 25.9794 33.8921 26.1282 34.0454C26.2783 34.1925 26.4566 34.308 26.6525 34.3848C26.8484 34.4616 27.0578 34.4983 27.2682 34.4926C27.4795 34.5 27.69 34.4634 27.8863 34.3851C28.0825 34.3068 28.2603 34.1885 28.4082 34.0378C28.5564 33.8841 28.6721 33.7022 28.7485 33.503C28.8249 33.3038 28.8603 33.0913 28.8527 32.8782C28.8596 32.6708 28.8237 32.4642 28.7473 32.2712C28.6709 32.0783 28.5555 31.903 28.4084 31.7562C28.2613 31.6095 28.0855 31.4945 27.892 31.4183C27.6985 31.342 27.4913 31.3062 27.2834 31.3131L27.2758 31.3055ZM27.8116 33.7347C27.7534 33.8287 27.672 33.9063 27.5752 33.9601C27.4785 34.014 27.3695 34.0422 27.2587 34.0422C27.1479 34.0422 27.0389 34.014 26.9421 33.9601C26.8454 33.9063 26.764 33.8287 26.7058 33.7347C26.5556 33.475 26.4843 33.1775 26.5006 32.8782C26.4859 32.5899 26.5573 32.3037 26.7058 32.0559C26.7613 31.9615 26.8407 31.8835 26.9361 31.8296C27.0316 31.7757 27.1395 31.7479 27.2492 31.7489C27.3601 31.7452 27.47 31.7705 27.568 31.8224C27.666 31.8742 27.7487 31.9508 27.8078 32.0445C27.958 32.2958 28.0295 32.5861 28.013 32.8782C28.0285 33.1769 27.9586 33.4739 27.8116 33.7347ZM32.0751 32.4803H33.4848V31.9005H32.0751V30.7371H33.5152V30.1648H31.2353V34.413H33.7888V33.8446H32.0751V32.4803ZM35.5368 32.5599C35.2594 32.3514 35.1188 32.1809 35.1188 32.0634C35.1196 32.0224 35.1296 31.9821 35.148 31.9454C35.1664 31.9087 35.1928 31.8765 35.2252 31.8512C35.3028 31.7933 35.3981 31.7639 35.495 31.7679C35.6786 31.7692 35.857 31.8289 36.0042 31.9384L36.2398 31.5594C35.9812 31.391 35.6784 31.3027 35.3696 31.3055C35.0972 31.2934 34.8289 31.375 34.6096 31.5367C34.5168 31.6088 34.4421 31.7015 34.3913 31.8074C34.3405 31.9133 34.3151 32.0295 34.317 32.1468C34.3249 32.3386 34.4034 32.5207 34.5374 32.6584C34.6746 32.797 34.8234 32.9238 34.982 33.0374C35.1348 33.1382 35.2774 33.2537 35.4076 33.3822C35.4686 33.4558 35.5022 33.5482 35.5026 33.6437C35.5054 33.6946 35.4962 33.7455 35.4758 33.7922C35.4553 33.8389 35.4242 33.8802 35.3848 33.9128C35.2982 33.9859 35.1864 34.0226 35.0732 34.0151C34.8276 33.9933 34.5975 33.886 34.4234 33.7119L34.1574 34.1364C34.4441 34.3656 34.8008 34.49 35.1682 34.4888C35.4628 34.5 35.7524 34.4104 35.989 34.2349C36.0912 34.159 36.1738 34.06 36.2299 33.946C36.2861 33.832 36.3142 33.7063 36.312 33.5793C36.3151 33.4084 36.2602 33.2414 36.1562 33.1056C35.9745 32.8974 35.7663 32.714 35.5368 32.5599ZM38.3601 33.9999C38.2941 34.0054 38.228 33.9914 38.1699 33.9598C38.1118 33.9281 38.0643 33.8801 38.0333 33.8218C37.955 33.6192 37.9226 33.4018 37.9383 33.1852V31.7906H38.7325V31.3813H37.9383V30.468L37.1327 30.6461V31.3813H36.7072V31.7906H37.1327V33.3519C37.1104 33.6211 37.163 33.8913 37.2847 34.1326C37.3719 34.2498 37.4871 34.3435 37.6198 34.4051C37.7526 34.4666 37.8986 34.4941 38.0447 34.485C38.3295 34.4835 38.6102 34.4174 38.8655 34.2917L38.7249 33.9128C38.617 33.9654 38.4992 33.9951 38.3791 33.9999H38.3601ZM41.78 32.6357C41.7845 32.4377 41.7705 32.2398 41.7382 32.0445C41.7061 31.9279 41.652 31.8186 41.5786 31.7224C41.4552 31.5751 41.2975 31.4602 41.1194 31.3875C40.9412 31.3149 40.748 31.2867 40.5565 31.3055C40.1188 31.3019 39.6933 31.4492 39.3519 31.7224L39.6141 32.1013C39.8203 31.9052 40.0896 31.7884 40.3741 31.7716C40.5271 31.7672 40.6761 31.8212 40.7905 31.9226C40.9049 32.0241 40.9762 32.1653 40.9897 32.3173C40.7845 32.359 40.6097 32.4007 40.4805 32.431C40.1974 32.4927 39.9248 32.5948 39.6711 32.7342C39.5111 32.8172 39.3769 32.9423 39.2831 33.096C39.1894 33.2496 39.1396 33.4259 39.1391 33.6058C39.1365 33.7216 39.1574 33.8368 39.2006 33.9444C39.2437 34.052 39.3082 34.1497 39.3902 34.2319C39.4722 34.314 39.57 34.3787 39.6776 34.4222C39.7853 34.4657 39.9007 34.4871 40.0169 34.485C40.2047 34.4851 40.3901 34.4417 40.5582 34.3582C40.7264 34.2747 40.8728 34.1533 40.9859 34.0037C40.9906 34.1432 41.0162 34.2811 41.0619 34.413H41.913C41.8175 34.1002 41.7764 33.7733 41.7914 33.4466L41.78 32.6357ZM41.0201 33.0601C41.0229 33.2089 40.9971 33.3568 40.9441 33.4959C40.9073 33.616 40.8343 33.7219 40.7351 33.7991C40.6218 33.893 40.4796 33.9451 40.3323 33.9469C40.2764 33.9485 40.2209 33.9377 40.1696 33.9155C40.1184 33.8932 40.0727 33.8599 40.0359 33.818C39.9958 33.7748 39.9647 33.7241 39.9445 33.6688C39.9243 33.6135 39.9153 33.5547 39.9181 33.4959C39.9181 33.1889 40.1765 32.9729 40.6781 32.8517L41.0049 32.7683L41.0201 33.0601ZM44.896 31.7716C44.7843 31.6244 44.6394 31.5054 44.473 31.4244C44.3067 31.3434 44.1235 31.3027 43.9384 31.3055C43.7443 31.3008 43.5515 31.3392 43.3741 31.4178C43.1967 31.4965 43.039 31.6134 42.9124 31.7603C42.6339 32.0724 42.4869 32.4796 42.502 32.8972C42.4881 33.2939 42.6115 33.6833 42.8516 33.9999C42.9686 34.1568 43.1221 34.2829 43.2988 34.3674C43.4756 34.4519 43.6703 34.4923 43.8662 34.485C44.0659 34.4791 44.2618 34.4291 44.4399 34.3387C44.6179 34.2483 44.7737 34.1196 44.896 33.962V34.413H45.6559V29.9602H44.896V31.7716ZM44.6756 33.6968C44.618 33.7932 44.5362 33.8729 44.4382 33.9281C44.3402 33.9832 44.2295 34.0119 44.117 34.0113C44.006 34.0118 43.8969 33.983 43.8008 33.9278C43.7046 33.8725 43.6249 33.7928 43.5698 33.6968C43.4215 33.4418 43.349 33.15 43.3608 32.8555C43.3458 32.5796 43.4161 32.3058 43.5622 32.071C43.6193 31.9859 43.696 31.9157 43.7859 31.8662C43.8758 31.8167 43.9763 31.7895 44.079 31.7868C44.1904 31.7836 44.3009 31.8087 44.3999 31.8597C44.499 31.9107 44.5834 31.9861 44.6452 32.0786C44.8033 32.3073 44.8808 32.5819 44.8656 32.8593C44.8818 33.1535 44.8075 33.4457 44.6528 33.6968H44.6756ZM47.9891 31.3055C47.7789 31.2989 47.5696 31.3347 47.3736 31.4109C47.1777 31.4871 46.9993 31.6021 46.8491 31.7489C46.698 31.8964 46.5794 32.0736 46.5009 32.2694C46.4224 32.4651 46.3857 32.6751 46.3931 32.8858C46.3856 33.0992 46.4215 33.312 46.4985 33.5113C46.5756 33.7106 46.6922 33.8922 46.8415 34.0454C46.9914 34.1929 47.1697 34.3086 47.3656 34.3854C47.5615 34.4623 47.771 34.4987 47.9815 34.4926C48.1928 34.5 48.4033 34.4634 48.5996 34.3851C48.7959 34.3068 48.9736 34.1885 49.1215 34.0378C49.2697 33.8841 49.3854 33.7022 49.4618 33.503C49.5382 33.3038 49.5736 33.0913 49.5661 32.8782C49.5729 32.6708 49.537 32.4642 49.4606 32.2712C49.3842 32.0783 49.2688 31.903 49.1217 31.7562C48.9746 31.6095 48.7988 31.4945 48.6053 31.4183C48.4118 31.342 48.2046 31.3062 47.9967 31.3131L47.9891 31.3055ZM48.5287 33.7347C48.4726 33.8301 48.3919 33.9089 48.295 33.9628C48.1982 34.0168 48.0886 34.044 47.9777 34.0416C47.8656 34.0446 47.7548 34.0177 47.6566 33.9637C47.5585 33.9098 47.4765 33.8307 47.4191 33.7347C47.2704 33.4746 47.2005 33.1771 47.2177 32.8782C47.2019 32.5903 47.272 32.3041 47.4191 32.0559C47.4782 31.9635 47.5596 31.8875 47.6559 31.8349C47.7522 31.7822 47.8603 31.7546 47.9701 31.7546C48.0799 31.7546 48.188 31.7822 48.2843 31.8349C48.3806 31.8875 48.462 31.9635 48.5211 32.0559C48.6713 32.3071 48.7428 32.5975 48.7263 32.8896C48.7318 33.1861 48.6556 33.4784 48.5059 33.7347H48.5287ZM54.0728 31.7716C53.9621 31.6242 53.8179 31.5051 53.6521 31.424C53.4863 31.343 53.3036 31.3024 53.119 31.3055C52.9243 31.3005 52.7309 31.3387 52.5528 31.4174C52.3747 31.496 52.2164 31.6131 52.0892 31.7603C51.8134 32.0738 51.668 32.4804 51.6826 32.8972C51.6676 33.2934 51.7897 33.6828 52.0284 33.9999C52.1454 34.1568 52.2989 34.2829 52.4756 34.3674C52.6524 34.4519 52.8471 34.4923 53.043 34.485C53.2428 34.4799 53.4391 34.4303 53.6172 34.3398C53.7954 34.2493 53.951 34.1202 54.0728 33.962V34.413H54.8327V29.9602H54.0728V31.7716ZM53.8562 33.6968C53.7977 33.7932 53.7151 33.8729 53.6166 33.928C53.518 33.9831 53.4068 34.0118 53.2938 34.0113C53.183 34.0111 53.0741 33.9819 52.9781 33.9267C52.8821 33.8716 52.8023 33.7923 52.7466 33.6968C52.5983 33.4418 52.5258 33.15 52.5376 32.8555C52.522 32.579 52.5937 32.3046 52.7428 32.071C52.8016 31.9814 52.8824 31.9083 52.9775 31.8586C53.0726 31.8088 53.1788 31.7841 53.2862 31.7868C53.3982 31.7833 53.5093 31.8082 53.609 31.8592C53.7087 31.9103 53.7937 31.9858 53.8562 32.0786C54.0111 32.3086 54.0871 32.5825 54.0728 32.8593C54.0791 33.1561 53.9957 33.4479 53.8334 33.6968H53.8562ZM58.3172 32.9388C58.3704 32.9161 58.397 32.9009 58.397 32.8896C58.4032 32.5816 58.345 32.2757 58.2261 31.9914C58.1291 31.7759 57.9672 31.5959 57.7629 31.4764C57.5586 31.3569 57.322 31.3038 57.0861 31.3245C56.8824 31.319 56.6798 31.3556 56.4909 31.4317C56.302 31.5079 56.1309 31.6221 55.9882 31.7672C55.8456 31.9123 55.7345 32.0852 55.6619 32.275C55.5892 32.4649 55.5566 32.6676 55.5661 32.8706C55.5584 33.0982 55.5995 33.3247 55.6866 33.5352C55.7738 33.7456 55.905 33.9351 56.0715 34.0909C56.2196 34.2288 56.3935 34.3362 56.5832 34.4071C56.7729 34.478 56.9748 34.5109 57.1773 34.5039C57.5971 34.4978 58.0077 34.3801 58.3666 34.1629L58.1387 33.746C57.9027 33.8982 57.6291 33.9821 57.3483 33.9886C57.2236 33.9928 57.0993 33.9711 56.9835 33.9248C56.8677 33.8785 56.7629 33.8085 56.6757 33.7195C56.4955 33.5209 56.4013 33.2594 56.4135 32.9919H58.2413C58.2413 32.9919 58.2451 32.9464 58.2945 32.9199L58.3172 32.9388ZM56.4173 32.5864C56.4401 32.0331 56.6643 31.7565 57.0899 31.7565C57.4699 31.7565 57.6485 31.9876 57.6789 32.4424C57.682 32.4904 57.682 32.5385 57.6789 32.5864H56.4173ZM63.0633 33.314L61.7372 30.1838H60.772V34.413H61.4522V32.071C61.4522 31.7792 61.4522 31.4495 61.4218 31.0857C61.5738 31.5329 61.6802 31.8436 61.7486 31.9914L62.7859 34.413H63.1659L64.2299 31.9914C64.3617 31.6956 64.4783 31.3933 64.5795 31.0857C64.5529 31.5594 64.5415 31.8815 64.5415 32.071V34.413H65.3585V30.1648H64.4275L63.0633 33.314ZM66.7797 30.0057C66.7166 30.0017 66.6534 30.0113 66.5943 30.0337C66.5353 30.0562 66.4818 30.0911 66.4375 30.1361C66.3931 30.181 66.359 30.2349 66.3374 30.2941C66.3158 30.3534 66.3072 30.4166 66.3123 30.4794C66.3121 30.5384 66.3242 30.5968 66.3477 30.6509C66.3713 30.705 66.4058 30.7537 66.4491 30.7939C66.5363 30.8764 66.6518 30.9225 66.772 30.9228C66.8325 30.9237 66.8924 30.9121 66.948 30.8886C67.0036 30.8651 67.0537 30.8303 67.095 30.7863C67.138 30.7437 67.1719 30.6928 67.1947 30.6369C67.2176 30.5809 67.2289 30.5209 67.228 30.4604C67.2307 30.4007 67.2209 30.341 67.1994 30.2851C67.1779 30.2293 67.1451 30.1784 67.1031 30.1358C67.061 30.0931 67.0106 30.0595 66.9549 30.0372C66.8993 30.0148 66.8396 30.0041 66.7797 30.0057ZM66.3731 34.4282H67.1748V31.3965H66.3731V34.4282ZM69.9982 31.3207C69.7999 31.3204 69.6041 31.3633 69.4242 31.4465C69.2444 31.5296 69.0849 31.6509 68.957 31.802V31.3813H68.1514V34.413H68.957V32.7759C68.9493 32.6059 68.9685 32.4358 69.014 32.2719C69.0562 32.138 69.1437 32.023 69.2615 31.9463C69.3793 31.8696 69.5201 31.836 69.66 31.8512C69.7577 31.8438 69.8556 31.864 69.9423 31.9096C70.029 31.9552 70.1011 32.0243 70.1502 32.1089C70.2278 32.2879 70.2616 32.4827 70.249 32.6774V34.413H71.0583V32.6925C71.0734 32.4178 71.0426 32.1424 70.9671 31.8778C70.891 31.6895 70.7549 31.5315 70.5798 31.4281C70.4046 31.3247 70.2003 31.2816 69.9982 31.3055V31.3207ZM74.3833 32.6508C74.3878 32.4529 74.3738 32.255 74.3415 32.0596C74.311 31.9425 74.2566 31.8329 74.1819 31.7375C74.0584 31.5903 73.9008 31.4754 73.7226 31.4027C73.5445 31.3301 73.3512 31.3019 73.1597 31.3207C72.722 31.3171 72.2965 31.4644 71.9551 31.7375L72.2211 32.1165C72.4266 31.9193 72.6963 31.8023 72.9811 31.7868C73.1344 31.7814 73.2838 31.8351 73.3985 31.9367C73.5131 32.0383 73.5841 32.1801 73.5967 32.3325C73.3915 32.3742 73.2167 32.4159 73.0913 32.4462C72.8081 32.5072 72.5354 32.6093 72.2819 32.7494C72.1166 32.8294 71.9769 32.9536 71.8783 33.1081C71.7796 33.2627 71.726 33.4416 71.7233 33.6248C71.7218 33.7403 71.7435 33.855 71.787 33.9621C71.8305 34.0692 71.895 34.1666 71.9768 34.2485C72.0586 34.3304 72.1559 34.3951 72.2631 34.439C72.3703 34.4829 72.4852 34.505 72.6011 34.5039C72.7895 34.5038 72.9752 34.4603 73.144 34.3768C73.3127 34.2933 73.4598 34.1721 73.5739 34.0227C73.5756 34.1621 73.6 34.3003 73.6461 34.4319H74.4973C74.4036 34.1187 74.3625 33.7922 74.3757 33.4656L74.3833 32.6508ZM73.6043 33.0753C73.6067 33.2237 73.5822 33.3713 73.5321 33.5111C73.4953 33.6321 73.4207 33.7383 73.3193 33.8142C73.2121 33.9034 73.0787 33.9553 72.9393 33.962C72.8834 33.9636 72.8279 33.9529 72.7767 33.9306C72.7254 33.9083 72.6798 33.8751 72.6429 33.8332C72.6028 33.79 72.5718 33.7392 72.5515 33.6839C72.5313 33.6286 72.5223 33.5699 72.5251 33.5111C72.5251 33.2041 72.7835 32.9881 73.2851 32.8668L73.6081 32.7835L73.6043 33.0753ZM76.4086 32.575C76.1312 32.3666 75.9868 32.1961 75.9868 32.0786C75.9876 32.0371 75.9979 31.9964 76.017 31.9596C76.0361 31.9228 76.0635 31.8909 76.097 31.8664C76.1742 31.8076 76.2698 31.7781 76.3668 31.783C76.549 31.7857 76.7258 31.8453 76.8722 31.9535L77.1078 31.5746C76.849 31.4066 76.5464 31.3183 76.2376 31.3207C75.9651 31.3079 75.6966 31.3896 75.4776 31.5518C75.3848 31.624 75.3101 31.7167 75.2593 31.8226C75.2086 31.9284 75.1831 32.0446 75.1851 32.162C75.188 32.3548 75.2625 32.5398 75.394 32.6811C75.5313 32.8197 75.68 32.9465 75.8386 33.0601C75.9915 33.1609 76.134 33.2764 76.2642 33.405C76.3252 33.4785 76.3588 33.5709 76.3592 33.6664C76.3621 33.7174 76.3529 33.7682 76.3324 33.815C76.312 33.8617 76.2808 33.903 76.2414 33.9355C76.1546 34.0083 76.043 34.045 75.9298 34.0378C75.6844 34.0154 75.4546 33.9082 75.28 33.7347L75.0179 34.1591C75.3024 34.3894 75.6584 34.514 76.0248 34.5115C76.3206 34.5221 76.6112 34.4326 76.8494 34.2576C76.9509 34.1812 77.033 34.082 77.0891 33.9681C77.1452 33.8543 77.1737 33.7289 77.1724 33.602C77.1755 33.4311 77.1206 33.2642 77.0166 33.1283C76.8379 32.9148 76.6338 32.7239 76.4086 32.5599V32.575ZM82.3137 33.7953C82.1356 33.8644 81.9462 33.9004 81.7551 33.9014C81.5533 33.9079 81.3525 33.871 81.1662 33.7932C80.98 33.7154 80.8128 33.5985 80.6759 33.4504C80.3942 33.1267 80.2474 32.7077 80.2655 32.2794C80.257 32.0703 80.2913 31.8615 80.3665 31.6661C80.4416 31.4706 80.556 31.2924 80.7025 31.1426C80.8538 30.9978 81.0326 30.8847 81.2284 30.8099C81.4242 30.735 81.6329 30.7 81.8425 30.7068C82.1582 30.7083 82.4683 30.7905 82.7431 30.9455L83.0167 30.4415C82.6334 30.2242 82.1998 30.1105 81.7589 30.1118C81.1201 30.0858 80.4957 30.3056 80.0147 30.7257C79.8009 30.9292 79.6307 31.1738 79.5144 31.4448C79.3981 31.7158 79.3382 32.0074 79.3382 32.3022C79.3382 32.5969 79.3981 32.8886 79.5144 33.1596C79.6307 33.4306 79.8009 33.6752 80.0147 33.8787C80.4779 34.3014 81.0897 34.5248 81.7171 34.5002C82.2132 34.4916 82.7046 34.4033 83.1725 34.2387V32.4689H82.3137V33.7953ZM86.5772 32.9351C86.6304 32.9123 86.657 32.8972 86.657 32.8858C86.6632 32.5778 86.6049 32.2719 86.486 31.9876C86.389 31.7721 86.2271 31.5921 86.0228 31.4726C85.8185 31.3531 85.582 31.3 85.346 31.3207C85.1426 31.3164 84.9405 31.3536 84.7521 31.4302C84.5638 31.5068 84.3931 31.621 84.2507 31.7659C84.1083 31.9108 83.9971 32.0832 83.9241 32.2725C83.8511 32.4619 83.8177 32.6641 83.826 32.8668C83.8193 33.0943 83.8608 33.3205 83.9479 33.5308C84.035 33.7411 84.1657 33.9307 84.3314 34.0871C84.6319 34.3658 85.0309 34.5143 85.441 34.5002C85.8584 34.4938 86.2665 34.376 86.6228 34.1591L86.3986 33.7422C86.1644 33.895 85.8918 33.979 85.612 33.9848C85.4867 33.9896 85.3617 33.9681 85.2452 33.9218C85.1287 33.8754 85.0232 33.8052 84.9356 33.7157C84.7555 33.5171 84.6612 33.2556 84.6734 32.9881H86.505C86.505 32.9881 86.524 32.9464 86.5772 32.9199V32.9351ZM84.6772 32.5826C84.7 32.0293 84.928 31.7527 85.3498 31.7527C85.707 31.7527 85.9084 31.9839 85.9426 32.4386C85.9426 32.4992 85.9426 32.5485 85.9426 32.5826H84.6772ZM88.3023 31.7375L88.1883 31.927V31.3965H87.3828V34.4282H88.1883V33.1207C88.1757 32.8782 88.2014 32.6353 88.2643 32.4007C88.2885 32.2931 88.3488 32.1969 88.4351 32.128C88.5215 32.0592 88.6288 32.0217 88.7393 32.0218C88.8724 32.0408 89.001 32.0831 89.1193 32.1468L89.4157 31.5708C89.2666 31.4108 89.0638 31.311 88.8457 31.2904C88.6405 31.3055 88.4581 31.4457 88.2947 31.7224L88.3023 31.7375ZM92.2315 32.6508C92.237 32.4527 92.2218 32.2546 92.1859 32.0596C92.1568 31.9427 92.1038 31.833 92.0301 31.7375C91.9064 31.5905 91.7487 31.4758 91.5706 31.4032C91.3925 31.3305 91.1994 31.3022 91.0079 31.3207C90.5702 31.3171 90.1447 31.4644 89.8033 31.7375L90.0655 32.1165C90.2718 31.9204 90.541 31.8036 90.8255 31.7868C90.9788 31.7814 91.1282 31.8351 91.2429 31.9367C91.3575 32.0383 91.4285 32.1801 91.4411 32.3325C91.2359 32.3742 91.0611 32.4159 90.9319 32.4462C90.6488 32.5078 90.3762 32.6099 90.1225 32.7494C89.9577 32.8295 89.8185 32.9539 89.7205 33.1085C89.6225 33.2631 89.5696 33.4419 89.5677 33.6248C89.5652 33.7413 89.5864 33.8572 89.6302 33.9654C89.674 34.0735 89.7393 34.1717 89.8223 34.2538C89.9028 34.3358 89.9993 34.4003 90.1059 34.4433C90.2124 34.4863 90.3268 34.507 90.4417 34.5039C90.6306 34.5041 90.8171 34.4607 90.9865 34.3773C91.1558 34.2938 91.3036 34.1724 91.4183 34.0227C91.4181 34.1623 91.4425 34.3008 91.4905 34.4319H92.3378C92.2423 34.1191 92.2012 33.7923 92.2162 33.4656L92.2315 32.6508ZM91.4715 33.0753C91.472 33.2235 91.4476 33.3708 91.3993 33.5111C91.3551 33.6399 91.2724 33.7522 91.1624 33.8328C91.0523 33.9134 90.9202 33.9585 90.7837 33.962C90.7278 33.9636 90.6723 33.9529 90.6211 33.9306C90.5698 33.9083 90.5242 33.8751 90.4873 33.8332C90.4472 33.79 90.4161 33.7392 90.3959 33.6839C90.3757 33.6286 90.3667 33.5699 90.3695 33.5111C90.3695 33.2041 90.6279 32.9881 91.1485 32.8668L91.4715 32.7835V33.0753ZM93.6222 30.0057C93.5601 30.0037 93.4982 30.014 93.4401 30.0361C93.382 30.0583 93.329 30.0917 93.284 30.1345C93.2406 30.1804 93.2071 30.2347 93.1856 30.294C93.164 30.3533 93.1548 30.4164 93.1586 30.4794C93.1578 30.5381 93.1691 30.5964 93.192 30.6506C93.2149 30.7047 93.2488 30.7535 93.2916 30.7939C93.3798 30.8773 93.4969 30.9235 93.6184 30.9228C93.6788 30.9237 93.7388 30.9121 93.7944 30.8886C93.85 30.8651 93.9001 30.8303 93.9414 30.7863C93.9844 30.7437 94.0182 30.6928 94.0411 30.6369C94.0639 30.5809 94.0753 30.5209 94.0744 30.4604C94.0762 30.4002 94.0657 30.3403 94.0435 30.2842C94.0213 30.2282 93.9878 30.1772 93.9452 30.1345C93.9001 30.0887 93.8453 30.0534 93.7849 30.0311C93.7244 30.0088 93.6598 30.0001 93.5956 30.0057H93.6222ZM93.2156 34.4282H94.0212V31.3965H93.2156V34.4282ZM96.1112 32.575C95.83 32.3666 95.6932 32.1961 95.6932 32.0786C95.6933 32.0378 95.7026 31.9976 95.7203 31.9609C95.7381 31.9242 95.7639 31.8919 95.7958 31.8664C95.8734 31.8085 95.9687 31.7791 96.0656 31.783C96.2492 31.7844 96.4275 31.8441 96.5747 31.9535L96.8103 31.5746C96.552 31.4056 96.2491 31.3172 95.9402 31.3207C95.6677 31.3079 95.3992 31.3896 95.1802 31.5518C95.0874 31.624 95.0126 31.7167 94.9619 31.8226C94.9111 31.9284 94.8857 32.0446 94.8876 32.162C94.8909 32.3541 94.9638 32.5385 95.0928 32.6811C95.2334 32.8176 95.3832 32.9442 95.5412 33.0601C95.694 33.1609 95.8365 33.2764 95.9668 33.405C96.0289 33.4782 96.0638 33.5705 96.0656 33.6664C96.0676 33.7176 96.0577 33.7686 96.0366 33.8153C96.0155 33.862 95.9838 33.9032 95.944 33.9355C95.856 34.0089 95.743 34.0456 95.6286 34.0378C95.3847 34.014 95.1565 33.9069 94.9826 33.7347L94.7204 34.1591C95.0052 34.3889 95.361 34.5134 95.7274 34.5115C96.023 34.5215 96.3134 34.4321 96.5519 34.2576C96.6535 34.1812 96.7356 34.082 96.7916 33.9681C96.8477 33.8543 96.8763 33.7289 96.8749 33.602C96.8781 33.4311 96.8232 33.2642 96.7191 33.1283C96.5333 32.9121 96.32 32.721 96.0846 32.5599L96.1112 32.575ZM24.9388 7.81377L30.6121 18.3678C30.6805 18.4796 30.7742 18.5738 30.8858 18.6429C30.9973 18.712 31.1235 18.7541 31.2543 18.7657H31.4177C31.537 18.7549 31.6527 18.7193 31.7575 18.6612C31.8622 18.6032 31.9535 18.5239 32.0257 18.4285L38.0257 7.01417V18.815H41.3886V1.64051C41.3873 1.42079 41.3027 1.20969 41.1519 1.04948C41.0012 0.889269 40.7953 0.791763 40.5755 0.776482H40.4083C40.273 0.79087 40.1432 0.837227 40.0295 0.911705C39.9158 0.986182 39.8216 1.08663 39.7547 1.20471L32.4513 14.8018L25.4594 1.68599C25.2736 1.41946 25.029 1.19891 24.7445 1.04126C24.4599 0.883602 24.143 0.793029 23.8179 0.776482H23.5595C23.0443 0.809012 22.5584 1.02655 22.1916 1.38883C21.8248 1.75111 21.6021 2.23362 21.5645 2.74708V18.815H24.9274L24.9388 7.81377ZM47.2975 2.23927C47.8979 2.18621 48.4755 2.13316 49.1291 2.13316C51.2988 2.13316 52.321 3.62247 52.321 5.68023C52.321 7.06343 51.6142 9.57215 48.6845 9.57215H48.6199V10.8417C48.7833 10.8417 48.9467 10.8417 49.1025 10.8417C54.1487 10.8417 55.6953 7.99567 55.6953 5.53622C55.6953 3.64142 54.9087 2.58412 53.917 1.86031C52.6858 0.969752 51.3254 0.867433 50.0714 0.867433H45.5419C45.1047 0.878177 44.6886 1.05748 44.3811 1.3677C44.0736 1.67791 43.8986 2.09489 43.8928 2.53107V18.8264H47.2899L47.2975 2.23927ZM89.9021 19.0651C92.255 19.004 94.5883 18.6215 96.8369 17.9282C96.7875 17.5493 96.8369 10.728 96.8369 10.728L95.4918 10.709C95.0228 10.7127 94.5725 10.8927 94.2309 11.213C93.8892 11.5334 93.6813 11.9705 93.6488 12.4371L93.6146 16.9619C92.4976 17.2554 91.3496 17.4157 90.1947 17.4394C86.1934 17.4394 83.883 14.3319 83.883 10.2126C83.883 4.77072 87.208 2.10284 90.4265 2.10284C91.4298 2.06793 92.4257 2.2874 93.3209 2.74072C94.216 3.19405 94.9813 3.86642 95.545 4.69493C95.545 4.69493 96.3506 2.93277 96.6394 2.04221C94.7295 0.99362 92.5757 0.466778 90.3961 0.514999C84.2896 0.514999 79.6385 3.80437 79.6385 10.3869C79.6385 15.6734 83.9248 19.0651 89.9021 19.0651ZM76.7582 0.825747H76.5872C76.4541 0.839167 76.3261 0.883967 76.2138 0.956448C76.1015 1.02893 76.0081 1.12701 75.9412 1.2426L68.7214 14.7222L61.798 1.71251C61.6111 1.44966 61.3663 1.23305 61.0824 1.07932C60.7985 0.925586 60.483 0.83884 60.1602 0.825747H59.917C59.4062 0.857356 58.9241 1.07249 58.5602 1.43132C58.1962 1.79014 57.9749 2.26835 57.9373 2.77739V18.6937H61.2736V7.79104L66.8784 18.2579C66.9486 18.3657 67.0426 18.4559 67.1533 18.5216C67.264 18.5873 67.3884 18.6268 67.5168 18.6369H67.6802C67.7979 18.6276 67.9122 18.593 68.0152 18.5354C68.1182 18.4778 68.2074 18.3987 68.2768 18.3034L74.2275 6.99143V18.6899H77.5638V1.67083C77.5604 1.45482 77.4757 1.24797 77.3265 1.0914C77.1772 0.934831 76.9744 0.839996 76.7582 0.825747Z" fill="black"/>
<path d="M18.8362 1.2688L0 20.0387C6.11406 14.6878 15.1274 13.6456 18.8134 18.6366C18.821 18.6593 18.8362 1.2688 18.8362 1.2688Z" fill="#FF2A2A"/>
</g>
<defs>
<clipPath id="clip0_834_4576">
<rect width="97.2777" height="33.97" fill="white" transform="translate(0 0.514893)"/>
</clipPath>
</defs>
</svg>
